<svg width="106" height="32" viewBox="0 0 106 32" fill="none" xmlns="http://www.w3.org/2000/svg">
<g opacity="0.9">
<path d="M19 27.3L18.4 26.8C16.4 24.9 15 23.7 15 22.2C15 21 16 20 17.2 20C17.9 20 18.6 20.3 19 20.8C19.4 20.3 20.1 20 20.8 20C22 20 23 20.9 23 22.2C23 23.7 21.6 24.9 19.6 26.8L19 27.3Z" fill="#50B2C0"/>
<path d="M18 6C19.1 6 20 6.9 20 8V17.08L19 17L18 17.08V8H13V16L10.5 13.75L8 16V8H6V24H13.08C13.2 24.72 13.45 25.39 13.8 26H6C4.9 26 4 25.1 4 24V8C4 6.9 4.9 6 6 6H18Z" fill="#8381D9"/>
<path d="M33.6357 23V8.9H36.1957V20.82H42.9557V23H33.6357ZM44.4662 11.12V8.68H47.2662V11.12H44.4662ZM44.6262 23V13.22H47.1262V23H44.6262ZM55.3638 23.2C54.6438 23.2 53.9972 23.04 53.4238 22.72C52.8638 22.4 52.4438 21.9667 52.1638 21.42V23H49.7238V8.9H52.2238V14.66C52.5172 14.1667 52.9372 13.7733 53.4838 13.48C54.0438 13.1733 54.6705 13.02 55.3638 13.02C56.2305 13.02 56.9838 13.2267 57.6238 13.64C58.2638 14.0533 58.7638 14.64 59.1238 15.4C59.4838 16.1467 59.6638 17.0467 59.6638 18.1C59.6638 19.14 59.4838 20.0467 59.1238 20.82C58.7638 21.58 58.2572 22.1667 57.6038 22.58C56.9638 22.9933 56.2172 23.2 55.3638 23.2ZM54.6638 21.3C55.4105 21.3 56.0105 21.0333 56.4638 20.5C56.9172 19.9533 57.1438 19.1533 57.1438 18.1C57.1438 17.0333 56.9172 16.24 56.4638 15.72C56.0105 15.1867 55.4105 14.92 54.6638 14.92C53.9172 14.92 53.3172 15.1867 52.8638 15.72C52.4105 16.24 52.1838 17.0333 52.1838 18.1C52.1838 19.1533 52.4105 19.9533 52.8638 20.5C53.3172 21.0333 53.9172 21.3 54.6638 21.3ZM61.716 23V13.22H64.156V14.94C64.636 13.78 65.6627 13.14 67.236 13.02L67.996 12.96L68.156 15.08L66.716 15.22C65.076 15.38 64.256 16.22 64.256 17.74V23H61.716ZM72.6704 23.2C71.9637 23.2 71.3304 23.0667 70.7704 22.8C70.2237 22.52 69.7904 22.1467 69.4704 21.68C69.1637 21.2133 69.0104 20.6867 69.0104 20.1C69.0104 19.38 69.1971 18.8133 69.5704 18.4C69.9437 17.9733 70.5504 17.6667 71.3904 17.48C72.2304 17.2933 73.3571 17.2 74.7704 17.2H75.4704V16.78C75.4704 16.1133 75.3237 15.6333 75.0304 15.34C74.7371 15.0467 74.2437 14.9 73.5504 14.9C73.0037 14.9 72.4437 14.9867 71.8704 15.16C71.2971 15.32 70.7171 15.5733 70.1304 15.92L69.4104 14.22C69.7571 13.98 70.1637 13.7733 70.6304 13.6C71.1104 13.4133 71.6104 13.2733 72.1304 13.18C72.6637 13.0733 73.1637 13.02 73.6304 13.02C75.0571 13.02 76.1171 13.3533 76.8104 14.02C77.5037 14.6733 77.8504 15.6933 77.8504 17.08V23H75.5104V21.44C75.2837 21.9867 74.9237 22.42 74.4304 22.74C73.9371 23.0467 73.3504 23.2 72.6704 23.2ZM73.1904 21.48C73.8437 21.48 74.3837 21.2533 74.8104 20.8C75.2504 20.3467 75.4704 19.7733 75.4704 19.08V18.64H74.7904C73.5371 18.64 72.6637 18.74 72.1704 18.94C71.6904 19.1267 71.4504 19.4733 71.4504 19.98C71.4504 20.42 71.6037 20.78 71.9104 21.06C72.2171 21.34 72.6437 21.48 73.1904 21.48ZM80.3879 23V13.22H82.8279V14.94C83.3079 13.78 84.3346 13.14 85.9079 13.02L86.6679 12.96L86.8279 15.08L85.3879 15.22C83.7479 15.38 82.9279 16.22 82.9279 17.74V23H80.3879ZM93.2663 23.2C90.6797 23.2 89.3863 21.92 89.3863 19.36V15.1H87.5063V13.22H89.3863V10.3H91.8863V13.22H94.8463V15.1H91.8863V19.22C91.8863 19.86 92.0263 20.34 92.3063 20.66C92.5863 20.98 93.0397 21.14 93.6663 21.14C93.853 21.14 94.0463 21.12 94.2463 21.08C94.4463 21.0267 94.653 20.9733 94.8663 20.92L95.2463 22.76C95.0063 22.8933 94.6997 23 94.3263 23.08C93.9663 23.16 93.613 23.2 93.2663 23.2ZM101.184 23.2C100.078 23.2 99.1245 22.9933 98.3245 22.58C97.5245 22.1667 96.9045 21.58 96.4645 20.82C96.0378 20.06 95.8245 19.16 95.8245 18.12C95.8245 17.1067 96.0311 16.22 96.4445 15.46C96.8711 14.7 97.4511 14.1067 98.1845 13.68C98.9311 13.24 99.7778 13.02 100.724 13.02C102.111 13.02 103.204 13.46 104.004 14.34C104.818 15.22 105.224 16.42 105.224 17.94V18.68H98.2245C98.4111 20.4267 99.4111 21.3 101.224 21.3C101.771 21.3 102.318 21.22 102.864 21.06C103.411 20.8867 103.911 20.62 104.364 20.26L105.064 21.94C104.598 22.3267 104.011 22.6333 103.304 22.86C102.598 23.0867 101.891 23.2 101.184 23.2ZM100.824 14.72C100.091 14.72 99.4978 14.9467 99.0445 15.4C98.5911 15.8533 98.3178 16.4667 98.2245 17.24H103.144C103.091 16.4267 102.864 15.8067 102.464 15.38C102.078 14.94 101.531 14.72 100.824 14.72Z" fill="url(#paint0_linear_726_2408)"/>
</g>
<defs>
<linearGradient id="paint0_linear_726_2408" x1="32" y1="16.3137" x2="106" y2="16.3137" gradientUnits="userSpaceOnUse">
<stop stop-color="#7FD1CC"/>
<stop offset="1" stop-color="#9694F5"/>
</linearGradient>
</defs>
</svg>
